<svg width="45" height="51" viewBox="0 0 45 51" fill="none" xmlns="http://www.w3.org/2000/svg">
<path d="M20.521 13.1384L14.5789 13.2991C14.5879 12.8616 14.4891 12.4777 14.2825 12.1473C14.0759 11.808 13.784 11.5446 13.4067 11.3571C13.0294 11.1696 12.5803 11.0759 12.0593 11.0759C11.2149 11.0759 10.4559 11.2634 9.78217 11.6384C9.11745 12.0134 8.74467 12.5 8.66382 13.0982C8.60094 13.4196 8.69077 13.7009 8.9333 13.942C9.17584 14.1741 9.7148 14.3795 10.5502 14.558L14.4307 15.308C16.4249 15.7009 17.8711 16.3839 18.7694 17.3571C19.6766 18.3214 20 19.5982 19.7395 21.1875C19.5059 22.5446 18.9041 23.7188 17.934 24.7098C16.9728 25.7009 15.7467 26.4688 14.2556 27.0134C12.7734 27.5491 11.1341 27.817 9.33753 27.817C6.30137 27.817 4.01078 27.2098 2.46575 25.9955C0.92971 24.7723 0.211094 23.1518 0.309903 21.1339L6.72356 20.9732C6.75051 21.7321 7.00651 22.3036 7.49158 22.6875C7.98563 23.0625 8.65484 23.2589 9.49921 23.2768C10.4244 23.2946 11.2239 23.1027 11.8976 22.7009C12.5713 22.2991 12.9486 21.8036 13.0294 21.2143C13.0833 20.8304 12.9531 20.5312 12.6387 20.317C12.3333 20.1027 11.7629 19.9107 10.9275 19.7411L7.42421 19.058C5.41208 18.6741 3.95688 17.9509 3.05861 16.8884C2.16932 15.817 1.86391 14.4509 2.14238 12.7902C2.37593 11.4688 2.92387 10.3482 3.78621 9.42857C4.65753 8.5 5.79385 7.79464 7.19515 7.3125C8.60543 6.83036 10.2133 6.58929 12.0189 6.58929C14.9113 6.58929 17.0941 7.17411 18.5673 8.34375C20.0494 9.50447 20.7006 11.1027 20.521 13.1384Z" fill="black"/>
<path d="M30.5289 15.6964L28.5616 27.4286H21.9728L26.554 0H32.9272L31.1756 10.6339H31.4047C32.0694 9.36607 32.9946 8.375 34.1803 7.66071C35.366 6.94643 36.7404 6.58929 38.3034 6.58929C39.7406 6.58929 40.9443 6.91072 41.9144 7.55357C42.8846 8.1875 43.5718 9.08482 43.976 10.2455C44.3802 11.4063 44.4521 12.7634 44.1916 14.317L41.9818 27.4286H35.393L37.3872 15.6027C37.5668 14.4598 37.4186 13.567 36.9425 12.9241C36.4664 12.2813 35.7029 11.9598 34.6519 11.9598C33.9603 11.9598 33.3225 12.1116 32.7386 12.4152C32.1637 12.7098 31.6831 13.1339 31.2969 13.6875C30.9106 14.2411 30.6546 14.9107 30.5289 15.6964Z" fill="black"/>
<path d="M8.55603 39.2679L6.58882 51H0L3.44936 30.4286H9.7148L9.09499 34.2054H9.32405C9.97081 32.9464 10.9095 31.9598 12.1401 31.2455C13.3708 30.5223 14.7541 30.1607 16.2901 30.1607C17.7364 30.1607 18.9445 30.4821 19.9147 31.125C20.8848 31.7679 21.572 32.6696 21.9762 33.8304C22.3804 34.9821 22.4478 36.3348 22.1783 37.8884L19.9686 51H13.3797L15.3604 39.1741C15.5581 38.0402 15.4188 37.1518 14.9427 36.5089C14.4756 35.8571 13.7121 35.5312 12.6521 35.5312C11.9605 35.5312 11.3272 35.683 10.7523 35.9866C10.1864 36.2813 9.71031 36.7054 9.32405 37.2589C8.94678 37.8125 8.69077 38.4821 8.55603 39.2679Z" fill="black"/>
<path d="M24.1017 51L24.7081 47.2634L36.2284 35.6518L36.2823 35.5179H27.0121L27.8879 30.4286H45L44.3532 34.5268L33.5875 45.7768L33.5336 45.9107H42.7498L41.9279 51H24.1017Z" fill="black"/>
</svg>
